<svg xmlns="http://www.w3.org/2000/svg" xmlns:xlink="http://www.w3.org/1999/xlink" width="500" zoomAndPan="magnify" viewBox="0 0 375 374.999991" height="500" preserveAspectRatio="xMidYMid meet" version="1.0"><defs><g/><clipPath id="34c247bb66"><path d="M 72.039062 26.515625 L 303 26.515625 L 303 348.265625 L 72.039062 348.265625 Z M 72.039062 26.515625 " clip-rule="nonzero"/></clipPath><clipPath id="abd7f14684"><path d="M 89.289062 26.515625 L 285.707031 26.515625 C 290.28125 26.515625 294.671875 28.335938 297.90625 31.570312 C 301.140625 34.804688 302.957031 39.191406 302.957031 43.765625 L 302.957031 331.230469 C 302.957031 335.804688 301.140625 340.191406 297.90625 343.425781 C 294.671875 346.660156 290.28125 348.476562 285.707031 348.476562 L 89.289062 348.476562 C 84.714844 348.476562 80.328125 346.660156 77.09375 343.425781 C 73.855469 340.191406 72.039062 335.804688 72.039062 331.230469 L 72.039062 43.765625 C 72.039062 39.191406 73.855469 34.804688 77.09375 31.570312 C 80.328125 28.335938 84.714844 26.515625 89.289062 26.515625 Z M 89.289062 26.515625 " clip-rule="nonzero"/></clipPath><clipPath id="2439fb1e30"><path d="M 90.09375 69.074219 L 285 69.074219 L 285 107.324219 L 90.09375 107.324219 Z M 90.09375 69.074219 " clip-rule="nonzero"/></clipPath><clipPath id="50db8521d3"><path d="M 97.589844 69.074219 L 277.402344 69.074219 C 281.546875 69.074219 284.902344 72.429688 284.902344 76.574219 L 284.902344 100.128906 C 284.902344 104.269531 281.546875 107.628906 277.402344 107.628906 L 97.589844 107.628906 C 93.449219 107.628906 90.09375 104.269531 90.09375 100.128906 L 90.09375 76.574219 C 90.09375 72.429688 93.449219 69.074219 97.589844 69.074219 Z M 97.589844 69.074219 " clip-rule="nonzero"/></clipPath><clipPath id="6255387b65"><path d="M 90.09375 142.097656 L 285 142.097656 L 285 180.347656 L 90.09375 180.347656 Z M 90.09375 142.097656 " clip-rule="nonzero"/></clipPath><clipPath id="439358e854"><path d="M 97.589844 142.097656 L 277.402344 142.097656 C 281.546875 142.097656 284.902344 145.453125 284.902344 149.59375 L 284.902344 173.152344 C 284.902344 177.292969 281.546875 180.652344 277.402344 180.652344 L 97.589844 180.652344 C 93.449219 180.652344 90.09375 177.292969 90.09375 173.152344 L 90.09375 149.59375 C 90.09375 145.453125 93.449219 142.097656 97.589844 142.097656 Z M 97.589844 142.097656 " clip-rule="nonzero"/></clipPath><clipPath id="3f9572e1a1"><path d="M 90.09375 214.074219 L 285 214.074219 L 285 252.324219 L 90.09375 252.324219 Z M 90.09375 214.074219 " clip-rule="nonzero"/></clipPath><clipPath id="338834a9ce"><path d="M 97.589844 214.074219 L 277.402344 214.074219 C 281.546875 214.074219 284.902344 217.433594 284.902344 221.574219 L 284.902344 245.128906 C 284.902344 249.273438 281.546875 252.628906 277.402344 252.628906 L 97.589844 252.628906 C 93.449219 252.628906 90.09375 249.273438 90.09375 245.128906 L 90.09375 221.574219 C 90.09375 217.433594 93.449219 214.074219 97.589844 214.074219 Z M 97.589844 214.074219 " clip-rule="nonzero"/></clipPath><clipPath id="1fd163ea92"><path d="M 90.09375 286.050781 L 285 286.050781 L 285 324.300781 L 90.09375 324.300781 Z M 90.09375 286.050781 " clip-rule="nonzero"/></clipPath><clipPath id="2f4548625a"><path d="M 97.589844 286.050781 L 277.402344 286.050781 C 281.546875 286.050781 284.902344 289.410156 284.902344 293.550781 L 284.902344 317.109375 C 284.902344 321.25 281.546875 324.605469 277.402344 324.605469 L 97.589844 324.605469 C 93.449219 324.605469 90.09375 321.25 90.09375 317.109375 L 90.09375 293.550781 C 90.09375 289.410156 93.449219 286.050781 97.589844 286.050781 Z M 97.589844 286.050781 " clip-rule="nonzero"/></clipPath></defs><g clip-path="url(#34c247bb66)"><g clip-path="url(#abd7f14684)"><path stroke-linecap="butt" transform="matrix(0.75, 0, 0, 0.75, 72.039477, 26.517433)" fill="none" stroke-linejoin="miter" d="M 22.999448 -0.00241053 L 284.890091 -0.00241053 C 290.989049 -0.00241053 296.843216 2.424673 301.155717 6.737173 C 305.468217 11.049674 307.890092 16.898632 307.890092 22.997591 L 307.890092 406.284074 C 307.890092 412.383033 305.468217 418.231992 301.155717 422.544492 C 296.843216 426.856992 290.989049 429.278868 284.890091 429.278868 L 22.999448 429.278868 C 16.90049 429.278868 11.051531 426.856992 6.739031 422.544492 C 2.421322 418.231992 -0.000553159 412.383033 -0.000553159 406.284074 L -0.000553159 22.997591 C -0.000553159 16.898632 2.421322 11.049674 6.739031 6.737173 C 11.051531 2.424673 16.90049 -0.00241053 22.999448 -0.00241053 Z M 22.999448 -0.00241053 " stroke="#000000" stroke-width="4" stroke-opacity="1" stroke-miterlimit="4"/></g></g><g clip-path="url(#2439fb1e30)"><g clip-path="url(#50db8521d3)"><path stroke-linecap="butt" transform="matrix(0.75, 0, 0, 0.75, 90.091947, 69.073824)" fill="none" stroke-linejoin="miter" d="M 9.997196 0.000525981 L 249.747212 0.000525981 C 255.273254 0.000525981 259.747212 4.474485 259.747212 10.000527 L 259.747212 41.406779 C 259.747212 46.927612 255.273254 51.406779 249.747212 51.406779 L 9.997196 51.406779 C 4.476362 51.406779 0.00240349 46.927612 0.00240349 41.406779 L 0.00240349 10.000527 C 0.00240349 4.474485 4.476362 0.000525981 9.997196 0.000525981 Z M 9.997196 0.000525981 " stroke="#67b5b5" stroke-width="4" stroke-opacity="1" stroke-miterlimit="4"/></g></g><g clip-path="url(#6255387b65)"><g clip-path="url(#439358e854)"><path stroke-linecap="butt" transform="matrix(0.75, 0, 0, 0.75, 90.091947, 142.096647)" fill="none" stroke-linejoin="miter" d="M 9.997196 0.00134611 L 249.747212 0.00134611 C 255.273254 0.00134611 259.747212 4.475305 259.747212 9.996138 L 259.747212 41.407599 C 259.747212 46.928433 255.273254 51.407599 249.747212 51.407599 L 9.997196 51.407599 C 4.476362 51.407599 0.00240349 46.928433 0.00240349 41.407599 L 0.00240349 9.996138 C 0.00240349 4.475305 4.476362 0.00134611 9.997196 0.00134611 Z M 9.997196 0.00134611 " stroke="#67b5b5" stroke-width="4" stroke-opacity="1" stroke-miterlimit="4"/></g></g><g clip-path="url(#3f9572e1a1)"><g clip-path="url(#338834a9ce)"><path stroke-linecap="butt" transform="matrix(0.75, 0, 0, 0.75, 90.091947, 214.074699)" fill="none" stroke-linejoin="miter" d="M 9.997196 -0.00063999 L 249.747212 -0.00063999 C 255.273254 -0.00063999 259.747212 4.478527 259.747212 9.999361 L 259.747212 41.405613 C 259.747212 46.931655 255.273254 51.405613 249.747212 51.405613 L 9.997196 51.405613 C 4.476362 51.405613 0.00240349 46.931655 0.00240349 41.405613 L 0.00240349 9.999361 C 0.00240349 4.478527 4.476362 -0.00063999 9.997196 -0.00063999 Z M 9.997196 -0.00063999 " stroke="#67b5b5" stroke-width="4" stroke-opacity="1" stroke-miterlimit="4"/></g></g><g clip-path="url(#1fd163ea92)"><g clip-path="url(#2f4548625a)"><path stroke-linecap="butt" transform="matrix(0.75, 0, 0, 0.75, 90.091947, 286.052734)" fill="none" stroke-linejoin="miter" d="M 9.997196 -0.00260369 L 249.747212 -0.00260369 C 255.273254 -0.00260369 259.747212 4.476563 259.747212 9.997397 L 259.747212 41.408857 C 259.747212 46.929691 255.273254 51.40365 249.747212 51.40365 L 9.997196 51.40365 C 4.476362 51.40365 0.00240349 46.929691 0.00240349 41.408857 L 0.00240349 9.997397 C 0.00240349 4.476563 4.476362 -0.00260369 9.997196 -0.00260369 Z M 9.997196 -0.00260369 " stroke="#67b5b5" stroke-width="4" stroke-opacity="1" stroke-miterlimit="4"/></g></g><g fill="#868686" fill-opacity="1"><g transform="translate(90.102734, 60.314034)"><g><path d="M 5.671875 0 L 3.546875 -3.640625 L 2.140625 -3.640625 L 2.140625 0 L 0.984375 0 L 0.984375 -8.90625 L 3.859375 -8.90625 C 4.535156 -8.90625 5.101562 -8.789062 5.5625 -8.5625 C 6.03125 -8.332031 6.378906 -8.019531 6.609375 -7.625 C 6.835938 -7.238281 6.953125 -6.789062 6.953125 -6.28125 C 6.953125 -5.675781 6.773438 -5.140625 6.421875 -4.671875 C 6.066406 -4.203125 5.535156 -3.890625 4.828125 -3.734375 L 7.0625 0 Z M 2.140625 -4.578125 L 3.859375 -4.578125 C 4.492188 -4.578125 4.96875 -4.734375 5.28125 -5.046875 C 5.59375 -5.359375 5.75 -5.769531 5.75 -6.28125 C 5.75 -6.8125 5.59375 -7.222656 5.28125 -7.515625 C 4.96875 -7.804688 4.492188 -7.953125 3.859375 -7.953125 L 2.140625 -7.953125 Z M 2.140625 -4.578125 "/></g></g></g><g fill="#868686" fill-opacity="1"><g transform="translate(97.868958, 60.314034)"><g><path d="M 7.375 -3.765625 C 7.375 -3.546875 7.363281 -3.3125 7.34375 -3.0625 L 1.734375 -3.0625 C 1.773438 -2.375 2.007812 -1.835938 2.4375 -1.453125 C 2.875 -1.066406 3.398438 -0.875 4.015625 -0.875 C 4.515625 -0.875 4.929688 -0.988281 5.265625 -1.21875 C 5.609375 -1.457031 5.847656 -1.769531 5.984375 -2.15625 L 7.234375 -2.15625 C 7.046875 -1.488281 6.671875 -0.941406 6.109375 -0.515625 C 5.546875 -0.0976562 4.847656 0.109375 4.015625 0.109375 C 3.347656 0.109375 2.75 -0.0351562 2.21875 -0.328125 C 1.695312 -0.628906 1.285156 -1.050781 0.984375 -1.59375 C 0.691406 -2.144531 0.546875 -2.785156 0.546875 -3.515625 C 0.546875 -4.234375 0.691406 -4.863281 0.984375 -5.40625 C 1.273438 -5.957031 1.679688 -6.378906 2.203125 -6.671875 C 2.722656 -6.972656 3.328125 -7.125 4.015625 -7.125 C 4.679688 -7.125 5.269531 -6.976562 5.78125 -6.6875 C 6.289062 -6.394531 6.679688 -5.992188 6.953125 -5.484375 C 7.234375 -4.984375 7.375 -4.410156 7.375 -3.765625 Z M 6.171875 -4.015625 C 6.171875 -4.453125 6.070312 -4.832031 5.875 -5.15625 C 5.675781 -5.476562 5.410156 -5.722656 5.078125 -5.890625 C 4.742188 -6.054688 4.375 -6.140625 3.96875 -6.140625 C 3.375 -6.140625 2.867188 -5.953125 2.453125 -5.578125 C 2.046875 -5.203125 1.8125 -4.679688 1.75 -4.015625 Z M 6.171875 -4.015625 "/></g></g></g><g fill="#868686" fill-opacity="1"><g transform="translate(105.788463, 60.314034)"><g><path d="M 0.546875 -3.53125 C 0.546875 -4.238281 0.691406 -4.863281 0.984375 -5.40625 C 1.273438 -5.945312 1.671875 -6.367188 2.171875 -6.671875 C 2.679688 -6.972656 3.253906 -7.125 3.890625 -7.125 C 4.492188 -7.125 5.019531 -6.988281 5.46875 -6.71875 C 5.925781 -6.445312 6.265625 -6.113281 6.484375 -5.71875 L 6.484375 -7 L 7.65625 -7 L 7.65625 3.328125 L 6.484375 3.328125 L 6.484375 -1.296875 C 6.253906 -0.898438 5.910156 -0.566406 5.453125 -0.296875 C 4.992188 -0.0234375 4.457031 0.109375 3.84375 0.109375 C 3.226562 0.109375 2.671875 -0.0390625 2.171875 -0.34375 C 1.671875 -0.65625 1.273438 -1.085938 0.984375 -1.640625 C 0.691406 -2.191406 0.546875 -2.820312 0.546875 -3.53125 Z M 6.484375 -3.515625 C 6.484375 -4.046875 6.375 -4.503906 6.15625 -4.890625 C 5.945312 -5.285156 5.660156 -5.585938 5.296875 -5.796875 C 4.929688 -6.003906 4.535156 -6.109375 4.109375 -6.109375 C 3.671875 -6.109375 3.269531 -6.003906 2.90625 -5.796875 C 2.550781 -5.597656 2.265625 -5.300781 2.046875 -4.90625 C 1.835938 -4.507812 1.734375 -4.050781 1.734375 -3.53125 C 1.734375 -2.988281 1.835938 -2.519531 2.046875 -2.125 C 2.265625 -1.726562 2.550781 -1.425781 2.90625 -1.21875 C 3.269531 -1.007812 3.671875 -0.90625 4.109375 -0.90625 C 4.535156 -0.90625 4.929688 -1.007812 5.296875 -1.21875 C 5.660156 -1.425781 5.945312 -1.726562 6.15625 -2.125 C 6.375 -2.519531 6.484375 -2.984375 6.484375 -3.515625 Z M 6.484375 -3.515625 "/></g></g></g><g fill="#868686" fill-opacity="1"><g transform="translate(114.423282, 60.314034)"><g><path d="M 7.203125 -7 L 7.203125 0 L 6.03125 0 L 6.03125 -1.03125 C 5.8125 -0.675781 5.503906 -0.394531 5.109375 -0.1875 C 4.710938 0.0078125 4.273438 0.109375 3.796875 0.109375 C 3.253906 0.109375 2.765625 -0.00390625 2.328125 -0.234375 C 1.890625 -0.460938 1.546875 -0.800781 1.296875 -1.25 C 1.046875 -1.707031 0.921875 -2.257812 0.921875 -2.90625 L 0.921875 -7 L 2.078125 -7 L 2.078125 -3.0625 C 2.078125 -2.363281 2.25 -1.828125 2.59375 -1.453125 C 2.945312 -1.085938 3.425781 -0.90625 4.03125 -0.90625 C 4.644531 -0.90625 5.128906 -1.097656 5.484375 -1.484375 C 5.847656 -1.867188 6.03125 -2.425781 6.03125 -3.15625 L 6.03125 -7 Z M 7.203125 -7 "/></g></g></g><g fill="#868686" fill-opacity="1"><g transform="translate(122.598254, 60.314034)"><g><path d="M 7.375 -3.765625 C 7.375 -3.546875 7.363281 -3.3125 7.34375 -3.0625 L 1.734375 -3.0625 C 1.773438 -2.375 2.007812 -1.835938 2.4375 -1.453125 C 2.875 -1.066406 3.398438 -0.875 4.015625 -0.875 C 4.515625 -0.875 4.929688 -0.988281 5.265625 -1.21875 C 5.609375 -1.457031 5.847656 -1.769531 5.984375 -2.15625 L 7.234375 -2.15625 C 7.046875 -1.488281 6.671875 -0.941406 6.109375 -0.515625 C 5.546875 -0.0976562 4.847656 0.109375 4.015625 0.109375 C 3.347656 0.109375 2.75 -0.0351562 2.21875 -0.328125 C 1.695312 -0.628906 1.285156 -1.050781 0.984375 -1.59375 C 0.691406 -2.144531 0.546875 -2.785156 0.546875 -3.515625 C 0.546875 -4.234375 0.691406 -4.863281 0.984375 -5.40625 C 1.273438 -5.957031 1.679688 -6.378906 2.203125 -6.671875 C 2.722656 -6.972656 3.328125 -7.125 4.015625 -7.125 C 4.679688 -7.125 5.269531 -6.976562 5.78125 -6.6875 C 6.289062 -6.394531 6.679688 -5.992188 6.953125 -5.484375 C 7.234375 -4.984375 7.375 -4.410156 7.375 -3.765625 Z M 6.171875 -4.015625 C 6.171875 -4.453125 6.070312 -4.832031 5.875 -5.15625 C 5.675781 -5.476562 5.410156 -5.722656 5.078125 -5.890625 C 4.742188 -6.054688 4.375 -6.140625 3.96875 -6.140625 C 3.375 -6.140625 2.867188 -5.953125 2.453125 -5.578125 C 2.046875 -5.203125 1.8125 -4.679688 1.75 -4.015625 Z M 6.171875 -4.015625 "/></g></g></g><g fill="#868686" fill-opacity="1"><g transform="translate(130.517759, 60.314034)"><g><path d="M 3.46875 0.109375 C 2.925781 0.109375 2.441406 0.0195312 2.015625 -0.15625 C 1.585938 -0.34375 1.25 -0.597656 1 -0.921875 C 0.757812 -1.253906 0.625 -1.632812 0.59375 -2.0625 L 1.796875 -2.0625 C 1.835938 -1.707031 2.003906 -1.421875 2.296875 -1.203125 C 2.585938 -0.984375 2.972656 -0.875 3.453125 -0.875 C 3.890625 -0.875 4.234375 -0.96875 4.484375 -1.15625 C 4.742188 -1.351562 4.875 -1.601562 4.875 -1.90625 C 4.875 -2.207031 4.738281 -2.429688 4.46875 -2.578125 C 4.195312 -2.734375 3.773438 -2.882812 3.203125 -3.03125 C 2.679688 -3.164062 2.253906 -3.300781 1.921875 -3.4375 C 1.597656 -3.582031 1.316406 -3.789062 1.078125 -4.0625 C 0.847656 -4.34375 0.734375 -4.707031 0.734375 -5.15625 C 0.734375 -5.519531 0.835938 -5.847656 1.046875 -6.140625 C 1.265625 -6.441406 1.570312 -6.679688 1.96875 -6.859375 C 2.363281 -7.035156 2.8125 -7.125 3.3125 -7.125 C 4.082031 -7.125 4.707031 -6.925781 5.1875 -6.53125 C 5.664062 -6.132812 5.921875 -5.597656 5.953125 -4.921875 L 4.796875 -4.921875 C 4.765625 -5.285156 4.613281 -5.578125 4.34375 -5.796875 C 4.082031 -6.023438 3.722656 -6.140625 3.265625 -6.140625 C 2.847656 -6.140625 2.515625 -6.046875 2.265625 -5.859375 C 2.023438 -5.679688 1.90625 -5.445312 1.90625 -5.15625 C 1.90625 -4.925781 1.976562 -4.738281 2.125 -4.59375 C 2.28125 -4.445312 2.46875 -4.328125 2.6875 -4.234375 C 2.914062 -4.148438 3.226562 -4.050781 3.625 -3.9375 C 4.132812 -3.800781 4.546875 -3.664062 4.859375 -3.53125 C 5.171875 -3.394531 5.4375 -3.195312 5.65625 -2.9375 C 5.882812 -2.675781 6.003906 -2.332031 6.015625 -1.90625 C 6.015625 -1.519531 5.90625 -1.171875 5.6875 -0.859375 C 5.476562 -0.554688 5.179688 -0.316406 4.796875 -0.140625 C 4.410156 0.0234375 3.96875 0.109375 3.46875 0.109375 Z M 3.46875 0.109375 "/></g></g></g><g fill="#868686" fill-opacity="1"><g transform="translate(137.185476, 60.314034)"><g><path d="M 2.40625 -6.046875 L 2.40625 -1.921875 C 2.40625 -1.578125 2.476562 -1.332031 2.625 -1.1875 C 2.769531 -1.050781 3.019531 -0.984375 3.375 -0.984375 L 4.234375 -0.984375 L 4.234375 0 L 3.1875 0 C 2.539062 0 2.050781 -0.144531 1.71875 -0.4375 C 1.394531 -0.738281 1.234375 -1.234375 1.234375 -1.921875 L 1.234375 -6.046875 L 0.328125 -6.046875 L 0.328125 -7 L 1.234375 -7 L 1.234375 -8.765625 L 2.40625 -8.765625 L 2.40625 -7 L 4.234375 -7 L 4.234375 -6.046875 Z M 2.40625 -6.046875 "/></g></g></g><g fill="#868686" fill-opacity="1"><g transform="translate(141.834993, 60.314034)"><g/></g></g><g fill="#868686" fill-opacity="1"><g transform="translate(145.245492, 60.314034)"><g><path d="M 7.984375 0 L 6.828125 0 L 2.140625 -7.09375 L 2.140625 0 L 0.984375 0 L 0.984375 -8.921875 L 2.140625 -8.921875 L 6.828125 -1.84375 L 6.828125 -8.921875 L 7.984375 -8.921875 Z M 7.984375 0 "/></g></g></g><g fill="#868686" fill-opacity="1"><g transform="translate(154.22519, 60.314034)"><g><path d="M 0.546875 -3.53125 C 0.546875 -4.238281 0.691406 -4.863281 0.984375 -5.40625 C 1.273438 -5.945312 1.671875 -6.367188 2.171875 -6.671875 C 2.679688 -6.972656 3.25 -7.125 3.875 -7.125 C 4.488281 -7.125 5.019531 -6.988281 5.46875 -6.71875 C 5.914062 -6.457031 6.253906 -6.125 6.484375 -5.71875 L 6.484375 -7 L 7.65625 -7 L 7.65625 0 L 6.484375 0 L 6.484375 -1.296875 C 6.253906 -0.890625 5.910156 -0.550781 5.453125 -0.28125 C 4.992188 -0.0195312 4.460938 0.109375 3.859375 0.109375 C 3.234375 0.109375 2.671875 -0.0390625 2.171875 -0.34375 C 1.671875 -0.65625 1.273438 -1.085938 0.984375 -1.640625 C 0.691406 -2.191406 0.546875 -2.820312 0.546875 -3.53125 Z M 6.484375 -3.515625 C 6.484375 -4.046875 6.375 -4.503906 6.15625 -4.890625 C 5.945312 -5.285156 5.660156 -5.585938 5.296875 -5.796875 C 4.929688 -6.003906 4.535156 -6.109375 4.109375 -6.109375 C 3.671875 -6.109375 3.269531 -6.003906 2.90625 -5.796875 C 2.550781 -5.597656 2.265625 -5.300781 2.046875 -4.90625 C 1.835938 -4.507812 1.734375 -4.050781 1.734375 -3.53125 C 1.734375 -2.988281 1.835938 -2.519531 2.046875 -2.125 C 2.265625 -1.726562 2.550781 -1.425781 2.90625 -1.21875 C 3.269531 -1.007812 3.671875 -0.90625 4.109375 -0.90625 C 4.535156 -0.90625 4.929688 -1.007812 5.296875 -1.21875 C 5.660156 -1.425781 5.945312 -1.726562 6.15625 -2.125 C 6.375 -2.519531 6.484375 -2.984375 6.484375 -3.515625 Z M 6.484375 -3.515625 "/></g></g></g><g fill="#868686" fill-opacity="1"><g transform="translate(162.860008, 60.314034)"><g><path d="M 9.40625 -7.125 C 9.945312 -7.125 10.429688 -7.007812 10.859375 -6.78125 C 11.285156 -6.5625 11.625 -6.222656 11.875 -5.765625 C 12.125 -5.316406 12.25 -4.769531 12.25 -4.125 L 12.25 0 L 11.09375 0 L 11.09375 -3.96875 C 11.09375 -4.664062 10.921875 -5.195312 10.578125 -5.5625 C 10.234375 -5.9375 9.765625 -6.125 9.171875 -6.125 C 8.566406 -6.125 8.085938 -5.925781 7.734375 -5.53125 C 7.378906 -5.144531 7.203125 -4.585938 7.203125 -3.859375 L 7.203125 0 L 6.046875 0 L 6.046875 -3.96875 C 6.046875 -4.664062 5.875 -5.195312 5.53125 -5.5625 C 5.1875 -5.9375 4.71875 -6.125 4.125 -6.125 C 3.519531 -6.125 3.035156 -5.925781 2.671875 -5.53125 C 2.316406 -5.144531 2.140625 -4.585938 2.140625 -3.859375 L 2.140625 0 L 0.984375 0 L 0.984375 -7 L 2.140625 -7 L 2.140625 -6 C 2.378906 -6.363281 2.691406 -6.640625 3.078125 -6.828125 C 3.460938 -7.023438 3.890625 -7.125 4.359375 -7.125 C 4.941406 -7.125 5.457031 -6.992188 5.90625 -6.734375 C 6.363281 -6.472656 6.703125 -6.085938 6.921875 -5.578125 C 7.117188 -6.066406 7.441406 -6.445312 7.890625 -6.71875 C 8.347656 -6.988281 8.851562 -7.125 9.40625 -7.125 Z M 9.40625 -7.125 "/></g></g></g><g fill="#868686" fill-opacity="1"><g transform="translate(176.016605, 60.314034)"><g><path d="M 7.375 -3.765625 C 7.375 -3.546875 7.363281 -3.3125 7.34375 -3.0625 L 1.734375 -3.0625 C 1.773438 -2.375 2.007812 -1.835938 2.4375 -1.453125 C 2.875 -1.066406 3.398438 -0.875 4.015625 -0.875 C 4.515625 -0.875 4.929688 -0.988281 5.265625 -1.21875 C 5.609375 -1.457031 5.847656 -1.769531 5.984375 -2.15625 L 7.234375 -2.15625 C 7.046875 -1.488281 6.671875 -0.941406 6.109375 -0.515625 C 5.546875 -0.0976562 4.847656 0.109375 4.015625 0.109375 C 3.347656 0.109375 2.75 -0.0351562 2.21875 -0.328125 C 1.695312 -0.628906 1.285156 -1.050781 0.984375 -1.59375 C 0.691406 -2.144531 0.546875 -2.785156 0.546875 -3.515625 C 0.546875 -4.234375 0.691406 -4.863281 0.984375 -5.40625 C 1.273438 -5.957031 1.679688 -6.378906 2.203125 -6.671875 C 2.722656 -6.972656 3.328125 -7.125 4.015625 -7.125 C 4.679688 -7.125 5.269531 -6.976562 5.78125 -6.6875 C 6.289062 -6.394531 6.679688 -5.992188 6.953125 -5.484375 C 7.234375 -4.984375 7.375 -4.410156 7.375 -3.765625 Z M 6.171875 -4.015625 C 6.171875 -4.453125 6.070312 -4.832031 5.875 -5.15625 C 5.675781 -5.476562 5.410156 -5.722656 5.078125 -5.890625 C 4.742188 -6.054688 4.375 -6.140625 3.96875 -6.140625 C 3.375 -6.140625 2.867188 -5.953125 2.453125 -5.578125 C 2.046875 -5.203125 1.8125 -4.679688 1.75 -4.015625 Z M 6.171875 -4.015625 "/></g></g></g><g fill="#868686" fill-opacity="1"><g transform="translate(90.102734, 134.050465)"><g><path d="M 3.75 -8.90625 C 4.726562 -8.90625 5.570312 -8.722656 6.28125 -8.359375 C 6.988281 -8.003906 7.53125 -7.488281 7.90625 -6.8125 C 8.289062 -6.132812 8.484375 -5.34375 8.484375 -4.4375 C 8.484375 -3.519531 8.289062 -2.726562 7.90625 -2.0625 C 7.53125 -1.394531 6.988281 -0.882812 6.28125 -0.53125 C 5.570312 -0.175781 4.726562 0 3.75 0 L 0.984375 0 L 0.984375 -8.90625 Z M 3.75 -0.953125 C 4.90625 -0.953125 5.785156 -1.253906 6.390625 -1.859375 C 6.992188 -2.472656 7.296875 -3.332031 7.296875 -4.4375 C 7.296875 -5.539062 6.988281 -6.40625 6.375 -7.03125 C 5.769531 -7.65625 4.894531 -7.96875 3.75 -7.96875 L 2.140625 -7.96875 L 2.140625 -0.953125 Z M 3.75 -0.953125 "/></g></g></g><g fill="#868686" fill-opacity="1"><g transform="translate(99.133518, 134.050465)"><g><path d="M 0.546875 -3.53125 C 0.546875 -4.238281 0.691406 -4.863281 0.984375 -5.40625 C 1.273438 -5.945312 1.671875 -6.367188 2.171875 -6.671875 C 2.679688 -6.972656 3.25 -7.125 3.875 -7.125 C 4.488281 -7.125 5.019531 -6.988281 5.46875 -6.71875 C 5.914062 -6.457031 6.253906 -6.125 6.484375 -5.71875 L 6.484375 -7 L 7.65625 -7 L 7.65625 0 L 6.484375 0 L 6.484375 -1.296875 C 6.253906 -0.890625 5.910156 -0.550781 5.453125 -0.28125 C 4.992188 -0.0195312 4.460938 0.109375 3.859375 0.109375 C 3.234375 0.109375 2.671875 -0.0390625 2.171875 -0.34375 C 1.671875 -0.65625 1.273438 -1.085938 0.984375 -1.640625 C 0.691406 -2.191406 0.546875 -2.820312 0.546875 -3.53125 Z M 6.484375 -3.515625 C 6.484375 -4.046875 6.375 -4.503906 6.15625 -4.890625 C 5.945312 -5.285156 5.660156 -5.585938 5.296875 -5.796875 C 4.929688 -6.003906 4.535156 -6.109375 4.109375 -6.109375 C 3.671875 -6.109375 3.269531 -6.003906 2.90625 -5.796875 C 2.550781 -5.597656 2.265625 -5.300781 2.046875 -4.90625 C 1.835938 -4.507812 1.734375 -4.050781 1.734375 -3.53125 C 1.734375 -2.988281 1.835938 -2.519531 2.046875 -2.125 C 2.265625 -1.726562 2.550781 -1.425781 2.90625 -1.21875 C 3.269531 -1.007812 3.671875 -0.90625 4.109375 -0.90625 C 4.535156 -0.90625 4.929688 -1.007812 5.296875 -1.21875 C 5.660156 -1.425781 5.945312 -1.726562 6.15625 -2.125 C 6.375 -2.519531 6.484375 -2.984375 6.484375 -3.515625 Z M 6.484375 -3.515625 "/></g></g></g><g fill="#868686" fill-opacity="1"><g transform="translate(107.768337, 134.050465)"><g><path d="M 2.40625 -6.046875 L 2.40625 -1.921875 C 2.40625 -1.578125 2.476562 -1.332031 2.625 -1.1875 C 2.769531 -1.050781 3.019531 -0.984375 3.375 -0.984375 L 4.234375 -0.984375 L 4.234375 0 L 3.1875 0 C 2.539062 0 2.050781 -0.144531 1.71875 -0.4375 C 1.394531 -0.738281 1.234375 -1.234375 1.234375 -1.921875 L 1.234375 -6.046875 L 0.328125 -6.046875 L 0.328125 -7 L 1.234375 -7 L 1.234375 -8.765625 L 2.40625 -8.765625 L 2.40625 -7 L 4.234375 -7 L 4.234375 -6.046875 Z M 2.40625 -6.046875 "/></g></g></g><g fill="#868686" fill-opacity="1"><g transform="translate(112.417854, 134.050465)"><g><path d="M 7.375 -3.765625 C 7.375 -3.546875 7.363281 -3.3125 7.34375 -3.0625 L 1.734375 -3.0625 C 1.773438 -2.375 2.007812 -1.835938 2.4375 -1.453125 C 2.875 -1.066406 3.398438 -0.875 4.015625 -0.875 C 4.515625 -0.875 4.929688 -0.988281 5.265625 -1.21875 C 5.609375 -1.457031 5.847656 -1.769531 5.984375 -2.15625 L 7.234375 -2.15625 C 7.046875 -1.488281 6.671875 -0.941406 6.109375 -0.515625 C 5.546875 -0.0976562 4.847656 0.109375 4.015625 0.109375 C 3.347656 0.109375 2.75 -0.0351562 2.21875 -0.328125 C 1.695312 -0.628906 1.285156 -1.050781 0.984375 -1.59375 C 0.691406 -2.144531 0.546875 -2.785156 0.546875 -3.515625 C 0.546875 -4.234375 0.691406 -4.863281 0.984375 -5.40625 C 1.273438 -5.957031 1.679688 -6.378906 2.203125 -6.671875 C 2.722656 -6.972656 3.328125 -7.125 4.015625 -7.125 C 4.679688 -7.125 5.269531 -6.976562 5.78125 -6.6875 C 6.289062 -6.394531 6.679688 -5.992188 6.953125 -5.484375 C 7.234375 -4.984375 7.375 -4.410156 7.375 -3.765625 Z M 6.171875 -4.015625 C 6.171875 -4.453125 6.070312 -4.832031 5.875 -5.15625 C 5.675781 -5.476562 5.410156 -5.722656 5.078125 -5.890625 C 4.742188 -6.054688 4.375 -6.140625 3.96875 -6.140625 C 3.375 -6.140625 2.867188 -5.953125 2.453125 -5.578125 C 2.046875 -5.203125 1.8125 -4.679688 1.75 -4.015625 Z M 6.171875 -4.015625 "/></g></g></g><g fill="#868686" fill-opacity="1"><g transform="translate(120.337359, 134.050465)"><g/></g></g><g fill="#868686" fill-opacity="1"><g transform="translate(123.747859, 134.050465)"><g><path d="M 0.546875 -3.53125 C 0.546875 -4.238281 0.691406 -4.863281 0.984375 -5.40625 C 1.273438 -5.945312 1.671875 -6.367188 2.171875 -6.671875 C 2.679688 -6.972656 3.25 -7.125 3.875 -7.125 C 4.488281 -7.125 5.019531 -6.988281 5.46875 -6.71875 C 5.914062 -6.457031 6.253906 -6.125 6.484375 -5.71875 L 6.484375 -7 L 7.65625 -7 L 7.65625 0 L 6.484375 0 L 6.484375 -1.296875 C 6.253906 -0.890625 5.910156 -0.550781 5.453125 -0.28125 C 4.992188 -0.0195312 4.460938 0.109375 3.859375 0.109375 C 3.234375 0.109375 2.671875 -0.0390625 2.171875 -0.34375 C 1.671875 -0.65625 1.273438 -1.085938 0.984375 -1.640625 C 0.691406 -2.191406 0.546875 -2.820312 0.546875 -3.53125 Z M 6.484375 -3.515625 C 6.484375 -4.046875 6.375 -4.503906 6.15625 -4.890625 C 5.945312 -5.285156 5.660156 -5.585938 5.296875 -5.796875 C 4.929688 -6.003906 4.535156 -6.109375 4.109375 -6.109375 C 3.671875 -6.109375 3.269531 -6.003906 2.90625 -5.796875 C 2.550781 -5.597656 2.265625 -5.300781 2.046875 -4.90625 C 1.835938 -4.507812 1.734375 -4.050781 1.734375 -3.53125 C 1.734375 -2.988281 1.835938 -2.519531 2.046875 -2.125 C 2.265625 -1.726562 2.550781 -1.425781 2.90625 -1.21875 C 3.269531 -1.007812 3.671875 -0.90625 4.109375 -0.90625 C 4.535156 -0.90625 4.929688 -1.007812 5.296875 -1.21875 C 5.660156 -1.425781 5.945312 -1.726562 6.15625 -2.125 C 6.375 -2.519531 6.484375 -2.984375 6.484375 -3.515625 Z M 6.484375 -3.515625 "/></g></g></g><g fill="#868686" fill-opacity="1"><g transform="translate(132.382677, 134.050465)"><g><path d="M 4.390625 -7.125 C 5.242188 -7.125 5.9375 -6.863281 6.46875 -6.34375 C 7 -5.832031 7.265625 -5.09375 7.265625 -4.125 L 7.265625 0 L 6.109375 0 L 6.109375 -3.96875 C 6.109375 -4.664062 5.929688 -5.195312 5.578125 -5.5625 C 5.234375 -5.9375 4.757812 -6.125 4.15625 -6.125 C 3.539062 -6.125 3.050781 -5.929688 2.6875 -5.546875 C 2.320312 -5.160156 2.140625 -4.601562 2.140625 -3.875 L 2.140625 0 L 0.984375 0 L 0.984375 -7 L 2.140625 -7 L 2.140625 -6 C 2.378906 -6.363281 2.695312 -6.640625 3.09375 -6.828125 C 3.488281 -7.023438 3.921875 -7.125 4.390625 -7.125 Z M 4.390625 -7.125 "/></g></g></g><g fill="#868686" fill-opacity="1"><g transform="translate(140.557649, 134.050465)"><g><path d="M 0.546875 -3.53125 C 0.546875 -4.238281 0.691406 -4.863281 0.984375 -5.40625 C 1.273438 -5.945312 1.671875 -6.367188 2.171875 -6.671875 C 2.679688 -6.972656 3.253906 -7.125 3.890625 -7.125 C 4.429688 -7.125 4.9375 -6.992188 5.40625 -6.734375 C 5.875 -6.484375 6.234375 -6.15625 6.484375 -5.75 L 6.484375 -9.453125 L 7.65625 -9.453125 L 7.65625 0 L 6.484375 0 L 6.484375 -1.3125 C 6.253906 -0.894531 5.910156 -0.550781 5.453125 -0.28125 C 5.003906 -0.0195312 4.476562 0.109375 3.875 0.109375 C 3.25 0.109375 2.679688 -0.0390625 2.171875 -0.34375 C 1.671875 -0.65625 1.273438 -1.085938 0.984375 -1.640625 C 0.691406 -2.191406 0.546875 -2.820312 0.546875 -3.53125 Z M 6.484375 -3.515625 C 6.484375 -4.046875 6.375 -4.503906 6.15625 -4.890625 C 5.945312 -5.285156 5.660156 -5.585938 5.296875 -5.796875 C 4.929688 -6.003906 4.535156 -6.109375 4.109375 -6.109375 C 3.671875 -6.109375 3.269531 -6.003906 2.90625 -5.796875 C 2.550781 -5.597656 2.265625 -5.300781 2.046875 -4.90625 C 1.835938 -4.507812 1.734375 -4.050781 1.734375 -3.53125 C 1.734375 -2.988281 1.835938 -2.519531 2.046875 -2.125 C 2.265625 -1.726562 2.550781 -1.425781 2.90625 -1.21875 C 3.269531 -1.007812 3.671875 -0.90625 4.109375 -0.90625 C 4.535156 -0.90625 4.929688 -1.007812 5.296875 -1.21875 C 5.660156 -1.425781 5.945312 -1.726562 6.15625 -2.125 C 6.375 -2.519531 6.484375 -2.984375 6.484375 -3.515625 Z M 6.484375 -3.515625 "/></g></g></g><g fill="#868686" fill-opacity="1"><g transform="translate(149.192467, 134.050465)"><g/></g></g><g fill="#868686" fill-opacity="1"><g transform="translate(152.602967, 134.050465)"><g><path d="M 6.46875 -8.90625 L 6.46875 -7.96875 L 4.03125 -7.96875 L 4.03125 0 L 2.875 0 L 2.875 -7.96875 L 0.4375 -7.96875 L 0.4375 -8.90625 Z M 6.46875 -8.90625 "/></g></g></g><g fill="#868686" fill-opacity="1"><g transform="translate(159.513378, 134.050465)"><g><path d="M 1.578125 -8.140625 C 1.359375 -8.140625 1.171875 -8.21875 1.015625 -8.375 C 0.867188 -8.53125 0.796875 -8.71875 0.796875 -8.9375 C 0.796875 -9.15625 0.867188 -9.335938 1.015625 -9.484375 C 1.171875 -9.640625 1.359375 -9.71875 1.578125 -9.71875 C 1.796875 -9.71875 1.976562 -9.640625 2.125 -9.484375 C 2.28125 -9.335938 2.359375 -9.15625 2.359375 -8.9375 C 2.359375 -8.71875 2.28125 -8.53125 2.125 -8.375 C 1.976562 -8.21875 1.796875 -8.140625 1.578125 -8.140625 Z M 2.140625 -7 L 2.140625 0 L 0.984375 0 L 0.984375 -7 Z M 2.140625 -7 "/></g></g></g><g fill="#868686" fill-opacity="1"><g transform="translate(162.655628, 134.050465)"><g><path d="M 9.40625 -7.125 C 9.945312 -7.125 10.429688 -7.007812 10.859375 -6.78125 C 11.285156 -6.5625 11.625 -6.222656 11.875 -5.765625 C 12.125 -5.316406 12.25 -4.769531 12.25 -4.125 L 12.25 0 L 11.09375 0 L 11.09375 -3.96875 C 11.09375 -4.664062 10.921875 -5.195312 10.578125 -5.5625 C 10.234375 -5.9375 9.765625 -6.125 9.171875 -6.125 C 8.566406 -6.125 8.085938 -5.925781 7.734375 -5.53125 C 7.378906 -5.144531 7.203125 -4.585938 7.203125 -3.859375 L 7.203125 0 L 6.046875 0 L 6.046875 -3.96875 C 6.046875 -4.664062 5.875 -5.195312 5.53125 -5.5625 C 5.1875 -5.9375 4.71875 -6.125 4.125 -6.125 C 3.519531 -6.125 3.035156 -5.925781 2.671875 -5.53125 C 2.316406 -5.144531 2.140625 -4.585938 2.140625 -3.859375 L 2.140625 0 L 0.984375 0 L 0.984375 -7 L 2.140625 -7 L 2.140625 -6 C 2.378906 -6.363281 2.691406 -6.640625 3.078125 -6.828125 C 3.460938 -7.023438 3.890625 -7.125 4.359375 -7.125 C 4.941406 -7.125 5.457031 -6.992188 5.90625 -6.734375 C 6.363281 -6.472656 6.703125 -6.085938 6.921875 -5.578125 C 7.117188 -6.066406 7.441406 -6.445312 7.890625 -6.71875 C 8.347656 -6.988281 8.851562 -7.125 9.40625 -7.125 Z M 9.40625 -7.125 "/></g></g></g><g fill="#868686" fill-opacity="1"><g transform="translate(175.812225, 134.050465)"><g><path d="M 7.375 -3.765625 C 7.375 -3.546875 7.363281 -3.3125 7.34375 -3.0625 L 1.734375 -3.0625 C 1.773438 -2.375 2.007812 -1.835938 2.4375 -1.453125 C 2.875 -1.066406 3.398438 -0.875 4.015625 -0.875 C 4.515625 -0.875 4.929688 -0.988281 5.265625 -1.21875 C 5.609375 -1.457031 5.847656 -1.769531 5.984375 -2.15625 L 7.234375 -2.15625 C 7.046875 -1.488281 6.671875 -0.941406 6.109375 -0.515625 C 5.546875 -0.0976562 4.847656 0.109375 4.015625 0.109375 C 3.347656 0.109375 2.75 -0.0351562 2.21875 -0.328125 C 1.695312 -0.628906 1.285156 -1.050781 0.984375 -1.59375 C 0.691406 -2.144531 0.546875 -2.785156 0.546875 -3.515625 C 0.546875 -4.234375 0.691406 -4.863281 0.984375 -5.40625 C 1.273438 -5.957031 1.679688 -6.378906 2.203125 -6.671875 C 2.722656 -6.972656 3.328125 -7.125 4.015625 -7.125 C 4.679688 -7.125 5.269531 -6.976562 5.78125 -6.6875 C 6.289062 -6.394531 6.679688 -5.992188 6.953125 -5.484375 C 7.234375 -4.984375 7.375 -4.410156 7.375 -3.765625 Z M 6.171875 -4.015625 C 6.171875 -4.453125 6.070312 -4.832031 5.875 -5.15625 C 5.675781 -5.476562 5.410156 -5.722656 5.078125 -5.890625 C 4.742188 -6.054688 4.375 -6.140625 3.96875 -6.140625 C 3.375 -6.140625 2.867188 -5.953125 2.453125 -5.578125 C 2.046875 -5.203125 1.8125 -4.679688 1.75 -4.015625 Z M 6.171875 -4.015625 "/></g></g></g><g fill="#868686" fill-opacity="1"><g transform="translate(90.114453, 206.210962)"><g><path d="M 5.671875 0 L 3.546875 -3.640625 L 2.140625 -3.640625 L 2.140625 0 L 0.984375 0 L 0.984375 -8.90625 L 3.859375 -8.90625 C 4.535156 -8.90625 5.101562 -8.789062 5.5625 -8.5625 C 6.03125 -8.332031 6.378906 -8.019531 6.609375 -7.625 C 6.835938 -7.238281 6.953125 -6.789062 6.953125 -6.28125 C 6.953125 -5.675781 6.773438 -5.140625 6.421875 -4.671875 C 6.066406 -4.203125 5.535156 -3.890625 4.828125 -3.734375 L 7.0625 0 Z M 2.140625 -4.578125 L 3.859375 -4.578125 C 4.492188 -4.578125 4.96875 -4.734375 5.28125 -5.046875 C 5.59375 -5.359375 5.75 -5.769531 5.75 -6.28125 C 5.75 -6.8125 5.59375 -7.222656 5.28125 -7.515625 C 4.96875 -7.804688 4.492188 -7.953125 3.859375 -7.953125 L 2.140625 -7.953125 Z M 2.140625 -4.578125 "/></g></g></g><g fill="#868686" fill-opacity="1"><g transform="translate(97.880677, 206.210962)"><g><path d="M 7.375 -3.765625 C 7.375 -3.546875 7.363281 -3.3125 7.34375 -3.0625 L 1.734375 -3.0625 C 1.773438 -2.375 2.007812 -1.835938 2.4375 -1.453125 C 2.875 -1.066406 3.398438 -0.875 4.015625 -0.875 C 4.515625 -0.875 4.929688 -0.988281 5.265625 -1.21875 C 5.609375 -1.457031 5.847656 -1.769531 5.984375 -2.15625 L 7.234375 -2.15625 C 7.046875 -1.488281 6.671875 -0.941406 6.109375 -0.515625 C 5.546875 -0.0976562 4.847656 0.109375 4.015625 0.109375 C 3.347656 0.109375 2.75 -0.0351562 2.21875 -0.328125 C 1.695312 -0.628906 1.285156 -1.050781 0.984375 -1.59375 C 0.691406 -2.144531 0.546875 -2.785156 0.546875 -3.515625 C 0.546875 -4.234375 0.691406 -4.863281 0.984375 -5.40625 C 1.273438 -5.957031 1.679688 -6.378906 2.203125 -6.671875 C 2.722656 -6.972656 3.328125 -7.125 4.015625 -7.125 C 4.679688 -7.125 5.269531 -6.976562 5.78125 -6.6875 C 6.289062 -6.394531 6.679688 -5.992188 6.953125 -5.484375 C 7.234375 -4.984375 7.375 -4.410156 7.375 -3.765625 Z M 6.171875 -4.015625 C 6.171875 -4.453125 6.070312 -4.832031 5.875 -5.15625 C 5.675781 -5.476562 5.410156 -5.722656 5.078125 -5.890625 C 4.742188 -6.054688 4.375 -6.140625 3.96875 -6.140625 C 3.375 -6.140625 2.867188 -5.953125 2.453125 -5.578125 C 2.046875 -5.203125 1.8125 -4.679688 1.75 -4.015625 Z M 6.171875 -4.015625 "/></g></g></g><g fill="#868686" fill-opacity="1"><g transform="translate(105.800182, 206.210962)"><g><path d="M 0.546875 -3.53125 C 0.546875 -4.238281 0.691406 -4.863281 0.984375 -5.40625 C 1.273438 -5.945312 1.671875 -6.367188 2.171875 -6.671875 C 2.679688 -6.972656 3.253906 -7.125 3.890625 -7.125 C 4.492188 -7.125 5.019531 -6.988281 5.46875 -6.71875 C 5.925781 -6.445312 6.265625 -6.113281 6.484375 -5.71875 L 6.484375 -7 L 7.65625 -7 L 7.65625 3.328125 L 6.484375 3.328125 L 6.484375 -1.296875 C 6.253906 -0.898438 5.910156 -0.566406 5.453125 -0.296875 C 4.992188 -0.0234375 4.457031 0.109375 3.84375 0.109375 C 3.226562 0.109375 2.671875 -0.0390625 2.171875 -0.34375 C 1.671875 -0.65625 1.273438 -1.085938 0.984375 -1.640625 C 0.691406 -2.191406 0.546875 -2.820312 0.546875 -3.53125 Z M 6.484375 -3.515625 C 6.484375 -4.046875 6.375 -4.503906 6.15625 -4.890625 C 5.945312 -5.285156 5.660156 -5.585938 5.296875 -5.796875 C 4.929688 -6.003906 4.535156 -6.109375 4.109375 -6.109375 C 3.671875 -6.109375 3.269531 -6.003906 2.90625 -5.796875 C 2.550781 -5.597656 2.265625 -5.300781 2.046875 -4.90625 C 1.835938 -4.507812 1.734375 -4.050781 1.734375 -3.53125 C 1.734375 -2.988281 1.835938 -2.519531 2.046875 -2.125 C 2.265625 -1.726562 2.550781 -1.425781 2.90625 -1.21875 C 3.269531 -1.007812 3.671875 -0.90625 4.109375 -0.90625 C 4.535156 -0.90625 4.929688 -1.007812 5.296875 -1.21875 C 5.660156 -1.425781 5.945312 -1.726562 6.15625 -2.125 C 6.375 -2.519531 6.484375 -2.984375 6.484375 -3.515625 Z M 6.484375 -3.515625 "/></g></g></g><g fill="#868686" fill-opacity="1"><g transform="translate(114.435001, 206.210962)"><g><path d="M 7.203125 -7 L 7.203125 0 L 6.03125 0 L 6.03125 -1.03125 C 5.8125 -0.675781 5.503906 -0.394531 5.109375 -0.1875 C 4.710938 0.0078125 4.273438 0.109375 3.796875 0.109375 C 3.253906 0.109375 2.765625 -0.00390625 2.328125 -0.234375 C 1.890625 -0.460938 1.546875 -0.800781 1.296875 -1.25 C 1.046875 -1.707031 0.921875 -2.257812 0.921875 -2.90625 L 0.921875 -7 L 2.078125 -7 L 2.078125 -3.0625 C 2.078125 -2.363281 2.25 -1.828125 2.59375 -1.453125 C 2.945312 -1.085938 3.425781 -0.90625 4.03125 -0.90625 C 4.644531 -0.90625 5.128906 -1.097656 5.484375 -1.484375 C 5.847656 -1.867188 6.03125 -2.425781 6.03125 -3.15625 L 6.03125 -7 Z M 7.203125 -7 "/></g></g></g><g fill="#868686" fill-opacity="1"><g transform="translate(122.609973, 206.210962)"><g><path d="M 1.578125 -8.140625 C 1.359375 -8.140625 1.171875 -8.21875 1.015625 -8.375 C 0.867188 -8.53125 0.796875 -8.71875 0.796875 -8.9375 C 0.796875 -9.15625 0.867188 -9.335938 1.015625 -9.484375 C 1.171875 -9.640625 1.359375 -9.71875 1.578125 -9.71875 C 1.796875 -9.71875 1.976562 -9.640625 2.125 -9.484375 C 2.28125 -9.335938 2.359375 -9.15625 2.359375 -8.9375 C 2.359375 -8.71875 2.28125 -8.53125 2.125 -8.375 C 1.976562 -8.21875 1.796875 -8.140625 1.578125 -8.140625 Z M 2.140625 -7 L 2.140625 0 L 0.984375 0 L 0.984375 -7 Z M 2.140625 -7 "/></g></g></g><g fill="#868686" fill-opacity="1"><g transform="translate(125.752222, 206.210962)"><g><path d="M 2.140625 -5.859375 C 2.347656 -6.265625 2.640625 -6.578125 3.015625 -6.796875 C 3.398438 -7.015625 3.863281 -7.125 4.40625 -7.125 L 4.40625 -5.9375 L 4.109375 -5.9375 C 2.796875 -5.9375 2.140625 -5.226562 2.140625 -3.8125 L 2.140625 0 L 0.984375 0 L 0.984375 -7 L 2.140625 -7 Z M 2.140625 -5.859375 "/></g></g></g><g fill="#868686" fill-opacity="1"><g transform="translate(130.516695, 206.210962)"><g><path d="M 7.375 -3.765625 C 7.375 -3.546875 7.363281 -3.3125 7.34375 -3.0625 L 1.734375 -3.0625 C 1.773438 -2.375 2.007812 -1.835938 2.4375 -1.453125 C 2.875 -1.066406 3.398438 -0.875 4.015625 -0.875 C 4.515625 -0.875 4.929688 -0.988281 5.265625 -1.21875 C 5.609375 -1.457031 5.847656 -1.769531 5.984375 -2.15625 L 7.234375 -2.15625 C 7.046875 -1.488281 6.671875 -0.941406 6.109375 -0.515625 C 5.546875 -0.0976562 4.847656 0.109375 4.015625 0.109375 C 3.347656 0.109375 2.75 -0.0351562 2.21875 -0.328125 C 1.695312 -0.628906 1.285156 -1.050781 0.984375 -1.59375 C 0.691406 -2.144531 0.546875 -2.785156 0.546875 -3.515625 C 0.546875 -4.234375 0.691406 -4.863281 0.984375 -5.40625 C 1.273438 -5.957031 1.679688 -6.378906 2.203125 -6.671875 C 2.722656 -6.972656 3.328125 -7.125 4.015625 -7.125 C 4.679688 -7.125 5.269531 -6.976562 5.78125 -6.6875 C 6.289062 -6.394531 6.679688 -5.992188 6.953125 -5.484375 C 7.234375 -4.984375 7.375 -4.410156 7.375 -3.765625 Z M 6.171875 -4.015625 C 6.171875 -4.453125 6.070312 -4.832031 5.875 -5.15625 C 5.675781 -5.476562 5.410156 -5.722656 5.078125 -5.890625 C 4.742188 -6.054688 4.375 -6.140625 3.96875 -6.140625 C 3.375 -6.140625 2.867188 -5.953125 2.453125 -5.578125 C 2.046875 -5.203125 1.8125 -4.679688 1.75 -4.015625 Z M 6.171875 -4.015625 "/></g></g></g><g fill="#868686" fill-opacity="1"><g transform="translate(138.436201, 206.210962)"><g><path d="M 0.546875 -3.53125 C 0.546875 -4.238281 0.691406 -4.863281 0.984375 -5.40625 C 1.273438 -5.945312 1.671875 -6.367188 2.171875 -6.671875 C 2.679688 -6.972656 3.253906 -7.125 3.890625 -7.125 C 4.429688 -7.125 4.9375 -6.992188 5.40625 -6.734375 C 5.875 -6.484375 6.234375 -6.15625 6.484375 -5.75 L 6.484375 -9.453125 L 7.65625 -9.453125 L 7.65625 0 L 6.484375 0 L 6.484375 -1.3125 C 6.253906 -0.894531 5.910156 -0.550781 5.453125 -0.28125 C 5.003906 -0.0195312 4.476562 0.109375 3.875 0.109375 C 3.25 0.109375 2.679688 -0.0390625 2.171875 -0.34375 C 1.671875 -0.65625 1.273438 -1.085938 0.984375 -1.640625 C 0.691406 -2.191406 0.546875 -2.820312 0.546875 -3.53125 Z M 6.484375 -3.515625 C 6.484375 -4.046875 6.375 -4.503906 6.15625 -4.890625 C 5.945312 -5.285156 5.660156 -5.585938 5.296875 -5.796875 C 4.929688 -6.003906 4.535156 -6.109375 4.109375 -6.109375 C 3.671875 -6.109375 3.269531 -6.003906 2.90625 -5.796875 C 2.550781 -5.597656 2.265625 -5.300781 2.046875 -4.90625 C 1.835938 -4.507812 1.734375 -4.050781 1.734375 -3.53125 C 1.734375 -2.988281 1.835938 -2.519531 2.046875 -2.125 C 2.265625 -1.726562 2.550781 -1.425781 2.90625 -1.21875 C 3.269531 -1.007812 3.671875 -0.90625 4.109375 -0.90625 C 4.535156 -0.90625 4.929688 -1.007812 5.296875 -1.21875 C 5.660156 -1.425781 5.945312 -1.726562 6.15625 -2.125 C 6.375 -2.519531 6.484375 -2.984375 6.484375 -3.515625 Z M 6.484375 -3.515625 "/></g></g></g><g fill="#868686" fill-opacity="1"><g transform="translate(147.071019, 206.210962)"><g/></g></g><g fill="#868686" fill-opacity="1"><g transform="translate(150.481518, 206.210962)"><g><path d="M 0.546875 -4.453125 C 0.546875 -5.328125 0.738281 -6.109375 1.125 -6.796875 C 1.519531 -7.492188 2.054688 -8.039062 2.734375 -8.4375 C 3.410156 -8.832031 4.164062 -9.03125 5 -9.03125 C 5.96875 -9.03125 6.8125 -8.796875 7.53125 -8.328125 C 8.257812 -7.859375 8.789062 -7.191406 9.125 -6.328125 L 7.734375 -6.328125 C 7.484375 -6.859375 7.125 -7.269531 6.65625 -7.5625 C 6.195312 -7.851562 5.644531 -8 5 -8 C 4.375 -8 3.8125 -7.851562 3.3125 -7.5625 C 2.820312 -7.269531 2.4375 -6.859375 2.15625 -6.328125 C 1.875 -5.796875 1.734375 -5.171875 1.734375 -4.453125 C 1.734375 -3.753906 1.875 -3.132812 2.15625 -2.59375 C 2.4375 -2.0625 2.820312 -1.648438 3.3125 -1.359375 C 3.8125 -1.078125 4.375 -0.9375 5 -0.9375 C 5.644531 -0.9375 6.195312 -1.078125 6.65625 -1.359375 C 7.125 -1.648438 7.484375 -2.0625 7.734375 -2.59375 L 9.125 -2.59375 C 8.789062 -1.738281 8.257812 -1.078125 7.53125 -0.609375 C 6.8125 -0.148438 5.96875 0.078125 5 0.078125 C 4.164062 0.078125 3.410156 -0.113281 2.734375 -0.5 C 2.054688 -0.894531 1.519531 -1.4375 1.125 -2.125 C 0.738281 -2.8125 0.546875 -3.585938 0.546875 -4.453125 Z M 0.546875 -4.453125 "/></g></g></g><g fill="#868686" fill-opacity="1"><g transform="translate(160.342583, 206.210962)"><g><path d="M 7.375 -3.765625 C 7.375 -3.546875 7.363281 -3.3125 7.34375 -3.0625 L 1.734375 -3.0625 C 1.773438 -2.375 2.007812 -1.835938 2.4375 -1.453125 C 2.875 -1.066406 3.398438 -0.875 4.015625 -0.875 C 4.515625 -0.875 4.929688 -0.988281 5.265625 -1.21875 C 5.609375 -1.457031 5.847656 -1.769531 5.984375 -2.15625 L 7.234375 -2.15625 C 7.046875 -1.488281 6.671875 -0.941406 6.109375 -0.515625 C 5.546875 -0.0976562 4.847656 0.109375 4.015625 0.109375 C 3.347656 0.109375 2.75 -0.0351562 2.21875 -0.328125 C 1.695312 -0.628906 1.285156 -1.050781 0.984375 -1.59375 C 0.691406 -2.144531 0.546875 -2.785156 0.546875 -3.515625 C 0.546875 -4.234375 0.691406 -4.863281 0.984375 -5.40625 C 1.273438 -5.957031 1.679688 -6.378906 2.203125 -6.671875 C 2.722656 -6.972656 3.328125 -7.125 4.015625 -7.125 C 4.679688 -7.125 5.269531 -6.976562 5.78125 -6.6875 C 6.289062 -6.394531 6.679688 -5.992188 6.953125 -5.484375 C 7.234375 -4.984375 7.375 -4.410156 7.375 -3.765625 Z M 6.171875 -4.015625 C 6.171875 -4.453125 6.070312 -4.832031 5.875 -5.15625 C 5.675781 -5.476562 5.410156 -5.722656 5.078125 -5.890625 C 4.742188 -6.054688 4.375 -6.140625 3.96875 -6.140625 C 3.375 -6.140625 2.867188 -5.953125 2.453125 -5.578125 C 2.046875 -5.203125 1.8125 -4.679688 1.75 -4.015625 Z M 6.171875 -4.015625 "/></g></g></g><g fill="#868686" fill-opacity="1"><g transform="translate(168.262088, 206.210962)"><g><path d="M 2.140625 -5.859375 C 2.347656 -6.265625 2.640625 -6.578125 3.015625 -6.796875 C 3.398438 -7.015625 3.863281 -7.125 4.40625 -7.125 L 4.40625 -5.9375 L 4.109375 -5.9375 C 2.796875 -5.9375 2.140625 -5.226562 2.140625 -3.8125 L 2.140625 0 L 0.984375 0 L 0.984375 -7 L 2.140625 -7 Z M 2.140625 -5.859375 "/></g></g></g><g fill="#868686" fill-opacity="1"><g transform="translate(173.026561, 206.210962)"><g><path d="M 2.40625 -6.046875 L 2.40625 -1.921875 C 2.40625 -1.578125 2.476562 -1.332031 2.625 -1.1875 C 2.769531 -1.050781 3.019531 -0.984375 3.375 -0.984375 L 4.234375 -0.984375 L 4.234375 0 L 3.1875 0 C 2.539062 0 2.050781 -0.144531 1.71875 -0.4375 C 1.394531 -0.738281 1.234375 -1.234375 1.234375 -1.921875 L 1.234375 -6.046875 L 0.328125 -6.046875 L 0.328125 -7 L 1.234375 -7 L 1.234375 -8.765625 L 2.40625 -8.765625 L 2.40625 -7 L 4.234375 -7 L 4.234375 -6.046875 Z M 2.40625 -6.046875 "/></g></g></g><g fill="#868686" fill-opacity="1"><g transform="translate(177.676078, 206.210962)"><g><path d="M 1.578125 -8.140625 C 1.359375 -8.140625 1.171875 -8.21875 1.015625 -8.375 C 0.867188 -8.53125 0.796875 -8.71875 0.796875 -8.9375 C 0.796875 -9.15625 0.867188 -9.335938 1.015625 -9.484375 C 1.171875 -9.640625 1.359375 -9.71875 1.578125 -9.71875 C 1.796875 -9.71875 1.976562 -9.640625 2.125 -9.484375 C 2.28125 -9.335938 2.359375 -9.15625 2.359375 -8.9375 C 2.359375 -8.71875 2.28125 -8.53125 2.125 -8.375 C 1.976562 -8.21875 1.796875 -8.140625 1.578125 -8.140625 Z M 2.140625 -7 L 2.140625 0 L 0.984375 0 L 0.984375 -7 Z M 2.140625 -7 "/></g></g></g><g fill="#868686" fill-opacity="1"><g transform="translate(180.818327, 206.210962)"><g><path d="M 3.828125 -6.046875 L 2.359375 -6.046875 L 2.359375 0 L 1.203125 0 L 1.203125 -6.046875 L 0.296875 -6.046875 L 0.296875 -7 L 1.203125 -7 L 1.203125 -7.5 C 1.203125 -8.28125 1.40625 -8.851562 1.8125 -9.21875 C 2.21875 -9.582031 2.863281 -9.765625 3.75 -9.765625 L 3.75 -8.796875 C 3.238281 -8.796875 2.878906 -8.691406 2.671875 -8.484375 C 2.460938 -8.285156 2.359375 -7.957031 2.359375 -7.5 L 2.359375 -7 L 3.828125 -7 Z M 3.828125 -6.046875 "/></g></g></g><g fill="#868686" fill-opacity="1"><g transform="translate(185.020769, 206.210962)"><g><path d="M 1.578125 -8.140625 C 1.359375 -8.140625 1.171875 -8.21875 1.015625 -8.375 C 0.867188 -8.53125 0.796875 -8.71875 0.796875 -8.9375 C 0.796875 -9.15625 0.867188 -9.335938 1.015625 -9.484375 C 1.171875 -9.640625 1.359375 -9.71875 1.578125 -9.71875 C 1.796875 -9.71875 1.976562 -9.640625 2.125 -9.484375 C 2.28125 -9.335938 2.359375 -9.15625 2.359375 -8.9375 C 2.359375 -8.71875 2.28125 -8.53125 2.125 -8.375 C 1.976562 -8.21875 1.796875 -8.140625 1.578125 -8.140625 Z M 2.140625 -7 L 2.140625 0 L 0.984375 0 L 0.984375 -7 Z M 2.140625 -7 "/></g></g></g><g fill="#868686" fill-opacity="1"><g transform="translate(188.163019, 206.210962)"><g><path d="M 0.546875 -3.515625 C 0.546875 -4.234375 0.691406 -4.863281 0.984375 -5.40625 C 1.273438 -5.945312 1.675781 -6.367188 2.1875 -6.671875 C 2.707031 -6.972656 3.300781 -7.125 3.96875 -7.125 C 4.820312 -7.125 5.523438 -6.910156 6.078125 -6.484375 C 6.640625 -6.066406 7.015625 -5.488281 7.203125 -4.75 L 5.9375 -4.75 C 5.820312 -5.175781 5.59375 -5.515625 5.25 -5.765625 C 4.90625 -6.015625 4.476562 -6.140625 3.96875 -6.140625 C 3.300781 -6.140625 2.757812 -5.910156 2.34375 -5.453125 C 1.9375 -4.992188 1.734375 -4.347656 1.734375 -3.515625 C 1.734375 -2.671875 1.9375 -2.019531 2.34375 -1.5625 C 2.757812 -1.101562 3.300781 -0.875 3.96875 -0.875 C 4.476562 -0.875 4.898438 -0.988281 5.234375 -1.21875 C 5.578125 -1.457031 5.8125 -1.800781 5.9375 -2.25 L 7.203125 -2.25 C 7.015625 -1.53125 6.640625 -0.957031 6.078125 -0.53125 C 5.515625 -0.101562 4.8125 0.109375 3.96875 0.109375 C 3.300781 0.109375 2.707031 -0.0351562 2.1875 -0.328125 C 1.675781 -0.628906 1.273438 -1.050781 0.984375 -1.59375 C 0.691406 -2.144531 0.546875 -2.785156 0.546875 -3.515625 Z M 0.546875 -3.515625 "/></g></g></g><g fill="#868686" fill-opacity="1"><g transform="translate(195.916471, 206.210962)"><g><path d="M 0.546875 -3.53125 C 0.546875 -4.238281 0.691406 -4.863281 0.984375 -5.40625 C 1.273438 -5.945312 1.671875 -6.367188 2.171875 -6.671875 C 2.679688 -6.972656 3.25 -7.125 3.875 -7.125 C 4.488281 -7.125 5.019531 -6.988281 5.46875 -6.71875 C 5.914062 -6.457031 6.253906 -6.125 6.484375 -5.71875 L 6.484375 -7 L 7.65625 -7 L 7.65625 0 L 6.484375 0 L 6.484375 -1.296875 C 6.253906 -0.890625 5.910156 -0.550781 5.453125 -0.28125 C 4.992188 -0.0195312 4.460938 0.109375 3.859375 0.109375 C 3.234375 0.109375 2.671875 -0.0390625 2.171875 -0.34375 C 1.671875 -0.65625 1.273438 -1.085938 0.984375 -1.640625 C 0.691406 -2.191406 0.546875 -2.820312 0.546875 -3.53125 Z M 6.484375 -3.515625 C 6.484375 -4.046875 6.375 -4.503906 6.15625 -4.890625 C 5.945312 -5.285156 5.660156 -5.585938 5.296875 -5.796875 C 4.929688 -6.003906 4.535156 -6.109375 4.109375 -6.109375 C 3.671875 -6.109375 3.269531 -6.003906 2.90625 -5.796875 C 2.550781 -5.597656 2.265625 -5.300781 2.046875 -4.90625 C 1.835938 -4.507812 1.734375 -4.050781 1.734375 -3.53125 C 1.734375 -2.988281 1.835938 -2.519531 2.046875 -2.125 C 2.265625 -1.726562 2.550781 -1.425781 2.90625 -1.21875 C 3.269531 -1.007812 3.671875 -0.90625 4.109375 -0.90625 C 4.535156 -0.90625 4.929688 -1.007812 5.296875 -1.21875 C 5.660156 -1.425781 5.945312 -1.726562 6.15625 -2.125 C 6.375 -2.519531 6.484375 -2.984375 6.484375 -3.515625 Z M 6.484375 -3.515625 "/></g></g></g><g fill="#868686" fill-opacity="1"><g transform="translate(204.551289, 206.210962)"><g><path d="M 2.40625 -6.046875 L 2.40625 -1.921875 C 2.40625 -1.578125 2.476562 -1.332031 2.625 -1.1875 C 2.769531 -1.050781 3.019531 -0.984375 3.375 -0.984375 L 4.234375 -0.984375 L 4.234375 0 L 3.1875 0 C 2.539062 0 2.050781 -0.144531 1.71875 -0.4375 C 1.394531 -0.738281 1.234375 -1.234375 1.234375 -1.921875 L 1.234375 -6.046875 L 0.328125 -6.046875 L 0.328125 -7 L 1.234375 -7 L 1.234375 -8.765625 L 2.40625 -8.765625 L 2.40625 -7 L 4.234375 -7 L 4.234375 -6.046875 Z M 2.40625 -6.046875 "/></g></g></g><g fill="#868686" fill-opacity="1"><g transform="translate(209.200806, 206.210962)"><g><path d="M 1.578125 -8.140625 C 1.359375 -8.140625 1.171875 -8.21875 1.015625 -8.375 C 0.867188 -8.53125 0.796875 -8.71875 0.796875 -8.9375 C 0.796875 -9.15625 0.867188 -9.335938 1.015625 -9.484375 C 1.171875 -9.640625 1.359375 -9.71875 1.578125 -9.71875 C 1.796875 -9.71875 1.976562 -9.640625 2.125 -9.484375 C 2.28125 -9.335938 2.359375 -9.15625 2.359375 -8.9375 C 2.359375 -8.71875 2.28125 -8.53125 2.125 -8.375 C 1.976562 -8.21875 1.796875 -8.140625 1.578125 -8.140625 Z M 2.140625 -7 L 2.140625 0 L 0.984375 0 L 0.984375 -7 Z M 2.140625 -7 "/></g></g></g><g fill="#868686" fill-opacity="1"><g transform="translate(212.343056, 206.210962)"><g><path d="M 4.03125 0.109375 C 3.382812 0.109375 2.789062 -0.0351562 2.25 -0.328125 C 1.71875 -0.628906 1.300781 -1.050781 1 -1.59375 C 0.695312 -2.144531 0.546875 -2.785156 0.546875 -3.515625 C 0.546875 -4.234375 0.703125 -4.863281 1.015625 -5.40625 C 1.328125 -5.957031 1.75 -6.378906 2.28125 -6.671875 C 2.820312 -6.972656 3.425781 -7.125 4.09375 -7.125 C 4.757812 -7.125 5.359375 -6.972656 5.890625 -6.671875 C 6.429688 -6.378906 6.851562 -5.957031 7.15625 -5.40625 C 7.46875 -4.863281 7.625 -4.234375 7.625 -3.515625 C 7.625 -2.785156 7.460938 -2.144531 7.140625 -1.59375 C 6.828125 -1.050781 6.394531 -0.628906 5.84375 -0.328125 C 5.300781 -0.0351562 4.695312 0.109375 4.03125 0.109375 Z M 4.03125 -0.90625 C 4.457031 -0.90625 4.851562 -1.003906 5.21875 -1.203125 C 5.582031 -1.398438 5.875 -1.691406 6.09375 -2.078125 C 6.320312 -2.472656 6.4375 -2.953125 6.4375 -3.515625 C 6.4375 -4.078125 6.328125 -4.550781 6.109375 -4.9375 C 5.890625 -5.332031 5.597656 -5.625 5.234375 -5.8125 C 4.878906 -6.007812 4.492188 -6.109375 4.078125 -6.109375 C 3.648438 -6.109375 3.257812 -6.007812 2.90625 -5.8125 C 2.550781 -5.625 2.265625 -5.332031 2.046875 -4.9375 C 1.835938 -4.550781 1.734375 -4.078125 1.734375 -3.515625 C 1.734375 -2.941406 1.835938 -2.457031 2.046875 -2.0625 C 2.253906 -1.675781 2.53125 -1.382812 2.875 -1.1875 C 3.226562 -1 3.613281 -0.90625 4.03125 -0.90625 Z M 4.03125 -0.90625 "/></g></g></g><g fill="#868686" fill-opacity="1"><g transform="translate(220.518028, 206.210962)"><g><path d="M 4.390625 -7.125 C 5.242188 -7.125 5.9375 -6.863281 6.46875 -6.34375 C 7 -5.832031 7.265625 -5.09375 7.265625 -4.125 L 7.265625 0 L 6.109375 0 L 6.109375 -3.96875 C 6.109375 -4.664062 5.929688 -5.195312 5.578125 -5.5625 C 5.234375 -5.9375 4.757812 -6.125 4.15625 -6.125 C 3.539062 -6.125 3.050781 -5.929688 2.6875 -5.546875 C 2.320312 -5.160156 2.140625 -4.601562 2.140625 -3.875 L 2.140625 0 L 0.984375 0 L 0.984375 -7 L 2.140625 -7 L 2.140625 -6 C 2.378906 -6.363281 2.695312 -6.640625 3.09375 -6.828125 C 3.488281 -7.023438 3.921875 -7.125 4.390625 -7.125 Z M 4.390625 -7.125 "/></g></g></g><g fill="#868686" fill-opacity="1"><g transform="translate(228.693, 206.210962)"><g><path d="M 3.46875 0.109375 C 2.925781 0.109375 2.441406 0.0195312 2.015625 -0.15625 C 1.585938 -0.34375 1.25 -0.597656 1 -0.921875 C 0.757812 -1.253906 0.625 -1.632812 0.59375 -2.0625 L 1.796875 -2.0625 C 1.835938 -1.707031 2.003906 -1.421875 2.296875 -1.203125 C 2.585938 -0.984375 2.972656 -0.875 3.453125 -0.875 C 3.890625 -0.875 4.234375 -0.96875 4.484375 -1.15625 C 4.742188 -1.351562 4.875 -1.601562 4.875 -1.90625 C 4.875 -2.207031 4.738281 -2.429688 4.46875 -2.578125 C 4.195312 -2.734375 3.773438 -2.882812 3.203125 -3.03125 C 2.679688 -3.164062 2.253906 -3.300781 1.921875 -3.4375 C 1.597656 -3.582031 1.316406 -3.789062 1.078125 -4.0625 C 0.847656 -4.34375 0.734375 -4.707031 0.734375 -5.15625 C 0.734375 -5.519531 0.835938 -5.847656 1.046875 -6.140625 C 1.265625 -6.441406 1.570312 -6.679688 1.96875 -6.859375 C 2.363281 -7.035156 2.8125 -7.125 3.3125 -7.125 C 4.082031 -7.125 4.707031 -6.925781 5.1875 -6.53125 C 5.664062 -6.132812 5.921875 -5.597656 5.953125 -4.921875 L 4.796875 -4.921875 C 4.765625 -5.285156 4.613281 -5.578125 4.34375 -5.796875 C 4.082031 -6.023438 3.722656 -6.140625 3.265625 -6.140625 C 2.847656 -6.140625 2.515625 -6.046875 2.265625 -5.859375 C 2.023438 -5.679688 1.90625 -5.445312 1.90625 -5.15625 C 1.90625 -4.925781 1.976562 -4.738281 2.125 -4.59375 C 2.28125 -4.445312 2.46875 -4.328125 2.6875 -4.234375 C 2.914062 -4.148438 3.226562 -4.050781 3.625 -3.9375 C 4.132812 -3.800781 4.546875 -3.664062 4.859375 -3.53125 C 5.171875 -3.394531 5.4375 -3.195312 5.65625 -2.9375 C 5.882812 -2.675781 6.003906 -2.332031 6.015625 -1.90625 C 6.015625 -1.519531 5.90625 -1.171875 5.6875 -0.859375 C 5.476562 -0.554688 5.179688 -0.316406 4.796875 -0.140625 C 4.410156 0.0234375 3.96875 0.109375 3.46875 0.109375 Z M 3.46875 0.109375 "/></g></g></g><g fill="#868686" fill-opacity="1"><g transform="translate(90.676953, 278.35677)"><g><path d="M 5.46875 -8.90625 L 5.46875 -2.328125 C 5.46875 -1.597656 5.238281 -1.007812 4.78125 -0.5625 C 4.332031 -0.125 3.738281 0.09375 3 0.09375 C 2.25 0.09375 1.648438 -0.128906 1.203125 -0.578125 C 0.753906 -1.023438 0.53125 -1.640625 0.53125 -2.421875 L 1.6875 -2.421875 C 1.695312 -1.984375 1.8125 -1.628906 2.03125 -1.359375 C 2.25 -1.085938 2.570312 -0.953125 3 -0.953125 C 3.4375 -0.953125 3.757812 -1.078125 3.96875 -1.328125 C 4.1875 -1.585938 4.296875 -1.921875 4.296875 -2.328125 L 4.296875 -8.90625 Z M 5.46875 -8.90625 "/></g></g></g><g fill="#868686" fill-opacity="1"><g transform="translate(97.446854, 278.35677)"><g><path d="M 4.03125 0.109375 C 3.382812 0.109375 2.789062 -0.0351562 2.25 -0.328125 C 1.71875 -0.628906 1.300781 -1.050781 1 -1.59375 C 0.695312 -2.144531 0.546875 -2.785156 0.546875 -3.515625 C 0.546875 -4.234375 0.703125 -4.863281 1.015625 -5.40625 C 1.328125 -5.957031 1.75 -6.378906 2.28125 -6.671875 C 2.820312 -6.972656 3.425781 -7.125 4.09375 -7.125 C 4.757812 -7.125 5.359375 -6.972656 5.890625 -6.671875 C 6.429688 -6.378906 6.851562 -5.957031 7.15625 -5.40625 C 7.46875 -4.863281 7.625 -4.234375 7.625 -3.515625 C 7.625 -2.785156 7.460938 -2.144531 7.140625 -1.59375 C 6.828125 -1.050781 6.394531 -0.628906 5.84375 -0.328125 C 5.300781 -0.0351562 4.695312 0.109375 4.03125 0.109375 Z M 4.03125 -0.90625 C 4.457031 -0.90625 4.851562 -1.003906 5.21875 -1.203125 C 5.582031 -1.398438 5.875 -1.691406 6.09375 -2.078125 C 6.320312 -2.472656 6.4375 -2.953125 6.4375 -3.515625 C 6.4375 -4.078125 6.328125 -4.550781 6.109375 -4.9375 C 5.890625 -5.332031 5.597656 -5.625 5.234375 -5.8125 C 4.878906 -6.007812 4.492188 -6.109375 4.078125 -6.109375 C 3.648438 -6.109375 3.257812 -6.007812 2.90625 -5.8125 C 2.550781 -5.625 2.265625 -5.332031 2.046875 -4.9375 C 1.835938 -4.550781 1.734375 -4.078125 1.734375 -3.515625 C 1.734375 -2.941406 1.835938 -2.457031 2.046875 -2.0625 C 2.253906 -1.675781 2.53125 -1.382812 2.875 -1.1875 C 3.226562 -1 3.613281 -0.90625 4.03125 -0.90625 Z M 4.03125 -0.90625 "/></g></g></g><g fill="#868686" fill-opacity="1"><g transform="translate(105.621826, 278.35677)"><g><path d="M 2.140625 -5.703125 C 2.378906 -6.117188 2.726562 -6.457031 3.1875 -6.71875 C 3.65625 -6.988281 4.179688 -7.125 4.765625 -7.125 C 5.398438 -7.125 5.96875 -6.972656 6.46875 -6.671875 C 6.96875 -6.367188 7.363281 -5.945312 7.65625 -5.40625 C 7.945312 -4.863281 8.09375 -4.238281 8.09375 -3.53125 C 8.09375 -2.820312 7.945312 -2.191406 7.65625 -1.640625 C 7.363281 -1.085938 6.960938 -0.65625 6.453125 -0.34375 C 5.953125 -0.0390625 5.390625 0.109375 4.765625 0.109375 C 4.160156 0.109375 3.628906 -0.0195312 3.171875 -0.28125 C 2.722656 -0.539062 2.378906 -0.878906 2.140625 -1.296875 L 2.140625 0 L 0.984375 0 L 0.984375 -9.453125 L 2.140625 -9.453125 Z M 6.90625 -3.53125 C 6.90625 -4.050781 6.796875 -4.507812 6.578125 -4.90625 C 6.367188 -5.300781 6.082031 -5.597656 5.71875 -5.796875 C 5.351562 -6.003906 4.957031 -6.109375 4.53125 -6.109375 C 4.101562 -6.109375 3.707031 -6.003906 3.34375 -5.796875 C 2.976562 -5.585938 2.6875 -5.285156 2.46875 -4.890625 C 2.25 -4.492188 2.140625 -4.035156 2.140625 -3.515625 C 2.140625 -2.984375 2.25 -2.519531 2.46875 -2.125 C 2.6875 -1.726562 2.976562 -1.425781 3.34375 -1.21875 C 3.707031 -1.007812 4.101562 -0.90625 4.53125 -0.90625 C 4.957031 -0.90625 5.351562 -1.007812 5.71875 -1.21875 C 6.082031 -1.425781 6.367188 -1.726562 6.578125 -2.125 C 6.796875 -2.519531 6.90625 -2.988281 6.90625 -3.53125 Z M 6.90625 -3.53125 "/></g></g></g><g fill="#868686" fill-opacity="1"><g transform="translate(114.256644, 278.35677)"><g/></g></g><g fill="#868686" fill-opacity="1"><g transform="translate(117.667144, 278.35677)"><g><path d="M 3.75 -8.90625 C 4.726562 -8.90625 5.570312 -8.722656 6.28125 -8.359375 C 6.988281 -8.003906 7.53125 -7.488281 7.90625 -6.8125 C 8.289062 -6.132812 8.484375 -5.34375 8.484375 -4.4375 C 8.484375 -3.519531 8.289062 -2.726562 7.90625 -2.0625 C 7.53125 -1.394531 6.988281 -0.882812 6.28125 -0.53125 C 5.570312 -0.175781 4.726562 0 3.75 0 L 0.984375 0 L 0.984375 -8.90625 Z M 3.75 -0.953125 C 4.90625 -0.953125 5.785156 -1.253906 6.390625 -1.859375 C 6.992188 -2.472656 7.296875 -3.332031 7.296875 -4.4375 C 7.296875 -5.539062 6.988281 -6.40625 6.375 -7.03125 C 5.769531 -7.65625 4.894531 -7.96875 3.75 -7.96875 L 2.140625 -7.96875 L 2.140625 -0.953125 Z M 3.75 -0.953125 "/></g></g></g><g fill="#868686" fill-opacity="1"><g transform="translate(126.697928, 278.35677)"><g><path d="M 7.375 -3.765625 C 7.375 -3.546875 7.363281 -3.3125 7.34375 -3.0625 L 1.734375 -3.0625 C 1.773438 -2.375 2.007812 -1.835938 2.4375 -1.453125 C 2.875 -1.066406 3.398438 -0.875 4.015625 -0.875 C 4.515625 -0.875 4.929688 -0.988281 5.265625 -1.21875 C 5.609375 -1.457031 5.847656 -1.769531 5.984375 -2.15625 L 7.234375 -2.15625 C 7.046875 -1.488281 6.671875 -0.941406 6.109375 -0.515625 C 5.546875 -0.0976562 4.847656 0.109375 4.015625 0.109375 C 3.347656 0.109375 2.75 -0.0351562 2.21875 -0.328125 C 1.695312 -0.628906 1.285156 -1.050781 0.984375 -1.59375 C 0.691406 -2.144531 0.546875 -2.785156 0.546875 -3.515625 C 0.546875 -4.234375 0.691406 -4.863281 0.984375 -5.40625 C 1.273438 -5.957031 1.679688 -6.378906 2.203125 -6.671875 C 2.722656 -6.972656 3.328125 -7.125 4.015625 -7.125 C 4.679688 -7.125 5.269531 -6.976562 5.78125 -6.6875 C 6.289062 -6.394531 6.679688 -5.992188 6.953125 -5.484375 C 7.234375 -4.984375 7.375 -4.410156 7.375 -3.765625 Z M 6.171875 -4.015625 C 6.171875 -4.453125 6.070312 -4.832031 5.875 -5.15625 C 5.675781 -5.476562 5.410156 -5.722656 5.078125 -5.890625 C 4.742188 -6.054688 4.375 -6.140625 3.96875 -6.140625 C 3.375 -6.140625 2.867188 -5.953125 2.453125 -5.578125 C 2.046875 -5.203125 1.8125 -4.679688 1.75 -4.015625 Z M 6.171875 -4.015625 "/></g></g></g><g fill="#868686" fill-opacity="1"><g transform="translate(134.617433, 278.35677)"><g><path d="M 2.40625 -6.046875 L 2.40625 -1.921875 C 2.40625 -1.578125 2.476562 -1.332031 2.625 -1.1875 C 2.769531 -1.050781 3.019531 -0.984375 3.375 -0.984375 L 4.234375 -0.984375 L 4.234375 0 L 3.1875 0 C 2.539062 0 2.050781 -0.144531 1.71875 -0.4375 C 1.394531 -0.738281 1.234375 -1.234375 1.234375 -1.921875 L 1.234375 -6.046875 L 0.328125 -6.046875 L 0.328125 -7 L 1.234375 -7 L 1.234375 -8.765625 L 2.40625 -8.765625 L 2.40625 -7 L 4.234375 -7 L 4.234375 -6.046875 Z M 2.40625 -6.046875 "/></g></g></g><g fill="#868686" fill-opacity="1"><g transform="translate(139.26695, 278.35677)"><g><path d="M 0.546875 -3.53125 C 0.546875 -4.238281 0.691406 -4.863281 0.984375 -5.40625 C 1.273438 -5.945312 1.671875 -6.367188 2.171875 -6.671875 C 2.679688 -6.972656 3.25 -7.125 3.875 -7.125 C 4.488281 -7.125 5.019531 -6.988281 5.46875 -6.71875 C 5.914062 -6.457031 6.253906 -6.125 6.484375 -5.71875 L 6.484375 -7 L 7.65625 -7 L 7.65625 0 L 6.484375 0 L 6.484375 -1.296875 C 6.253906 -0.890625 5.910156 -0.550781 5.453125 -0.28125 C 4.992188 -0.0195312 4.460938 0.109375 3.859375 0.109375 C 3.234375 0.109375 2.671875 -0.0390625 2.171875 -0.34375 C 1.671875 -0.65625 1.273438 -1.085938 0.984375 -1.640625 C 0.691406 -2.191406 0.546875 -2.820312 0.546875 -3.53125 Z M 6.484375 -3.515625 C 6.484375 -4.046875 6.375 -4.503906 6.15625 -4.890625 C 5.945312 -5.285156 5.660156 -5.585938 5.296875 -5.796875 C 4.929688 -6.003906 4.535156 -6.109375 4.109375 -6.109375 C 3.671875 -6.109375 3.269531 -6.003906 2.90625 -5.796875 C 2.550781 -5.597656 2.265625 -5.300781 2.046875 -4.90625 C 1.835938 -4.507812 1.734375 -4.050781 1.734375 -3.53125 C 1.734375 -2.988281 1.835938 -2.519531 2.046875 -2.125 C 2.265625 -1.726562 2.550781 -1.425781 2.90625 -1.21875 C 3.269531 -1.007812 3.671875 -0.90625 4.109375 -0.90625 C 4.535156 -0.90625 4.929688 -1.007812 5.296875 -1.21875 C 5.660156 -1.425781 5.945312 -1.726562 6.15625 -2.125 C 6.375 -2.519531 6.484375 -2.984375 6.484375 -3.515625 Z M 6.484375 -3.515625 "/></g></g></g><g fill="#868686" fill-opacity="1"><g transform="translate(147.901769, 278.35677)"><g><path d="M 1.578125 -8.140625 C 1.359375 -8.140625 1.171875 -8.21875 1.015625 -8.375 C 0.867188 -8.53125 0.796875 -8.71875 0.796875 -8.9375 C 0.796875 -9.15625 0.867188 -9.335938 1.015625 -9.484375 C 1.171875 -9.640625 1.359375 -9.71875 1.578125 -9.71875 C 1.796875 -9.71875 1.976562 -9.640625 2.125 -9.484375 C 2.28125 -9.335938 2.359375 -9.15625 2.359375 -8.9375 C 2.359375 -8.71875 2.28125 -8.53125 2.125 -8.375 C 1.976562 -8.21875 1.796875 -8.140625 1.578125 -8.140625 Z M 2.140625 -7 L 2.140625 0 L 0.984375 0 L 0.984375 -7 Z M 2.140625 -7 "/></g></g></g><g fill="#868686" fill-opacity="1"><g transform="translate(151.044018, 278.35677)"><g><path d="M 2.140625 -9.453125 L 2.140625 0 L 0.984375 0 L 0.984375 -9.453125 Z M 2.140625 -9.453125 "/></g></g></g><g fill="#868686" fill-opacity="1"><g transform="translate(154.186268, 278.35677)"><g><path d="M 3.46875 0.109375 C 2.925781 0.109375 2.441406 0.0195312 2.015625 -0.15625 C 1.585938 -0.34375 1.25 -0.597656 1 -0.921875 C 0.757812 -1.253906 0.625 -1.632812 0.59375 -2.0625 L 1.796875 -2.0625 C 1.835938 -1.707031 2.003906 -1.421875 2.296875 -1.203125 C 2.585938 -0.984375 2.972656 -0.875 3.453125 -0.875 C 3.890625 -0.875 4.234375 -0.96875 4.484375 -1.15625 C 4.742188 -1.351562 4.875 -1.601562 4.875 -1.90625 C 4.875 -2.207031 4.738281 -2.429688 4.46875 -2.578125 C 4.195312 -2.734375 3.773438 -2.882812 3.203125 -3.03125 C 2.679688 -3.164062 2.253906 -3.300781 1.921875 -3.4375 C 1.597656 -3.582031 1.316406 -3.789062 1.078125 -4.0625 C 0.847656 -4.34375 0.734375 -4.707031 0.734375 -5.15625 C 0.734375 -5.519531 0.835938 -5.847656 1.046875 -6.140625 C 1.265625 -6.441406 1.570312 -6.679688 1.96875 -6.859375 C 2.363281 -7.035156 2.8125 -7.125 3.3125 -7.125 C 4.082031 -7.125 4.707031 -6.925781 5.1875 -6.53125 C 5.664062 -6.132812 5.921875 -5.597656 5.953125 -4.921875 L 4.796875 -4.921875 C 4.765625 -5.285156 4.613281 -5.578125 4.34375 -5.796875 C 4.082031 -6.023438 3.722656 -6.140625 3.265625 -6.140625 C 2.847656 -6.140625 2.515625 -6.046875 2.265625 -5.859375 C 2.023438 -5.679688 1.90625 -5.445312 1.90625 -5.15625 C 1.90625 -4.925781 1.976562 -4.738281 2.125 -4.59375 C 2.28125 -4.445312 2.46875 -4.328125 2.6875 -4.234375 C 2.914062 -4.148438 3.226562 -4.050781 3.625 -3.9375 C 4.132812 -3.800781 4.546875 -3.664062 4.859375 -3.53125 C 5.171875 -3.394531 5.4375 -3.195312 5.65625 -2.9375 C 5.882812 -2.675781 6.003906 -2.332031 6.015625 -1.90625 C 6.015625 -1.519531 5.90625 -1.171875 5.6875 -0.859375 C 5.476562 -0.554688 5.179688 -0.316406 4.796875 -0.140625 C 4.410156 0.0234375 3.96875 0.109375 3.46875 0.109375 Z M 3.46875 0.109375 "/></g></g></g></svg>